<svg width="6" height="10" viewBox="0 0 6 10" fill="none" xmlns="http://www.w3.org/2000/svg">
<path d="M5.46659 5.46666L1.46659 9.46666C1.33325 9.59999 1.19992 9.66666 0.999919 9.66666C0.799919 9.66666 0.666585 9.59999 0.533252 9.46666C0.266585 9.2 0.266585 8.8 0.533252 8.53333L4.06659 5L0.533252 1.46666C0.266585 1.19999 0.266585 0.799995 0.533252 0.533328C0.799919 0.266662 1.19992 0.266662 1.46659 0.533328L5.46659 4.53333C5.73325 4.79999 5.73325 5.2 5.46659 5.46666Z" fill="#333333"/>
<path d="M5.46659 5.46666L1.46659 9.46666C1.33325 9.59999 1.19992 9.66666 0.999919 9.66666C0.799919 9.66666 0.666585 9.59999 0.533252 9.46666C0.266585 9.2 0.266585 8.8 0.533252 8.53333L4.06659 5L0.533252 1.46666C0.266585 1.19999 0.266585 0.799995 0.533252 0.533328C0.799919 0.266662 1.19992 0.266662 1.46659 0.533328L5.46659 4.53333C5.73325 4.79999 5.73325 5.2 5.46659 5.46666Z" fill="black" fill-opacity="0.2"/>
</svg>
