<svg width="20" height="16" viewBox="0 0 20 16" fill="none" xmlns="http://www.w3.org/2000/svg"><path d="M14.58 2.50578L7.84067 9.25416L5.41824 6.824L5.41157 6.81731L5.40478 6.81075C5.21381 6.62627 4.98837 6.48122 4.74134 6.38386C4.4943 6.28651 4.23052 6.23877 3.96504 6.24336C3.69955 6.24796 3.43757 6.3048 3.19406 6.41063C2.95054 6.51647 2.73025 6.66924 2.54578 6.86021C2.3613 7.05119 2.21625 7.27663 2.11889 7.52366C2.02154 7.77069 1.9738 8.03447 1.97839 8.29996C1.98298 8.56544 2.03982 8.82742 2.14566 9.07094C2.25016 9.31136 2.4004 9.52915 2.588 9.71218L6.42001 13.5442C6.42059 13.5448 6.42117 13.5454 6.42175 13.5459C6.60732 13.7326 6.8279 13.8807 7.07086 13.982C7.31458 14.0835 7.57599 14.1358 7.84001 14.1358C8.10403 14.1358 8.36544 14.0835 8.60917 13.982C8.85211 13.8808 9.07267 13.7326 9.25823 13.546C9.25882 13.5454 9.25942 13.5448 9.26001 13.5442L17.4053 5.39889C17.6003 5.21473 17.7563 4.99319 17.8639 4.7474C17.9747 4.4944 18.0319 4.22119 18.0319 3.94498C18.0319 3.66878 17.9747 3.39557 17.8639 3.14257C17.7561 2.89635 17.5997 2.67446 17.4043 2.49012C17.2217 2.31003 17.0061 2.16669 16.7692 2.068C16.5254 1.96646 16.264 1.91418 16 1.91418C15.736 1.91418 15.4746 1.96646 15.2309 2.068C14.9877 2.16929 14.767 2.31761 14.5814 2.50442C14.5809 2.50487 14.5805 2.50533 14.58 2.50578Z" fill="black" stroke="white" stroke-width="2"/></svg>
