<svg width="22" height="20" viewBox="0 0 22 20" fill="none" xmlns="http://www.w3.org/2000/svg">
<path d="M12.2937 9.10501C12.2937 7.25125 10.7857 5.74318 8.93189 5.74318C7.07826 5.74318 5.57005 7.25125 5.57005 9.10501C5.57005 10.9586 7.07826 12.4669 8.93189 12.4669C10.7857 12.4669 12.2937 10.9588 12.2937 9.10501ZM8.93189 10.7859C8.00508 10.7859 7.25097 10.0318 7.25097 9.10501C7.25097 8.17803 8.00508 7.42409 8.93189 7.42409C9.85888 7.42409 10.6128 8.17803 10.6128 9.10501C10.6128 10.0318 9.85888 10.7859 8.93189 10.7859ZM20.2978 12.7423V11.7122L21.5424 10.3286C21.661 10.1966 21.7349 10.0306 21.7534 9.85413C21.7719 9.67769 21.7341 9.49991 21.6454 9.34627L20.4844 7.33543C20.3957 7.18178 20.2607 7.06014 20.0986 6.98795C19.9366 6.91576 19.7558 6.89672 19.5823 6.93356L17.7616 7.3195L17.1807 6.98395L17.4061 6.73349C17.5247 6.60159 17.5986 6.43552 17.6171 6.25907C17.6357 6.08262 17.5979 5.90483 17.5092 5.75116L16.1251 3.35387C16.0363 3.20022 15.9013 3.07858 15.7392 3.00637C15.5772 2.93416 15.3964 2.91509 15.2229 2.95188L12.9919 3.42498L11.821 2.74883L11.1151 0.580357C11.0602 0.411652 10.9534 0.264642 10.8098 0.160387C10.6663 0.0561319 10.4935 -1.92557e-05 10.316 -2.28871e-05L7.54795 -2.28871e-05C7.37051 -3.20694e-05 7.19761 0.0561208 7.05403 0.160391C6.91046 0.264662 6.80357 0.4117 6.74867 0.580441L6.04298 2.74887L4.87209 3.42502L2.64093 2.95192C2.46736 2.91516 2.28661 2.93425 2.12456 3.00646C1.9625 3.07868 1.82745 3.20031 1.73873 3.35396L0.35479 5.75103C0.26607 5.90468 0.22826 6.08247 0.246777 6.25892C0.265295 6.43537 0.339189 6.60144 0.457873 6.73332L1.98301 8.42886V9.781L0.457873 11.4765C0.33923 11.6084 0.265363 11.7745 0.246846 11.9509C0.22833 12.1274 0.266115 12.3052 0.35479 12.4588L1.7389 14.8561C1.82758 15.0097 1.96263 15.1314 2.1247 15.2036C2.28676 15.2758 2.46753 15.2949 2.64109 15.2581L4.87193 14.785L6.04281 15.461L6.74867 17.6296C6.80358 17.7983 6.91047 17.9454 7.05404 18.0496C7.19762 18.1539 7.37051 18.21 7.54795 18.2101H10.316C10.4934 18.21 10.6663 18.1539 10.8098 18.0496C10.9534 17.9453 11.0602 17.7983 11.1151 17.6296L11.2174 17.3153L11.7973 17.6501L12.3734 19.4197C12.4283 19.5884 12.5351 19.7354 12.6787 19.8396C12.8222 19.9438 12.995 20 13.1724 20H15.4944C15.8583 20 16.1809 19.7657 16.2936 19.4197L16.8695 17.6501L17.7616 17.135L19.5823 17.5209C19.7558 17.5577 19.9365 17.5386 20.0986 17.4665C20.2606 17.3943 20.3957 17.2727 20.4844 17.1191L21.6453 15.1082C21.734 14.9546 21.7718 14.7768 21.7533 14.6003C21.7348 14.4239 21.6609 14.2578 21.5422 14.1259L20.2978 12.7423ZM8.15825 16.5291L7.54152 14.6343C7.47732 14.4369 7.34229 14.2702 7.16247 14.1665L5.43314 13.1681C5.25346 13.0643 5.04175 13.0307 4.83877 13.0737L2.88945 13.487L2.11564 12.1469L3.44823 10.6656C3.58703 10.5113 3.66381 10.3111 3.66376 10.1036V8.10663C3.66376 7.899 3.58695 7.69888 3.44823 7.54457L2.11564 6.0631L2.88945 4.72298L4.83877 5.13632C5.04176 5.17931 5.25347 5.14567 5.43314 5.0419L7.16251 4.04356C7.34233 3.9398 7.47736 3.77314 7.54156 3.57571L8.15821 1.6809H9.70566L10.3222 3.57571C10.3865 3.77311 10.5215 3.93975 10.7013 4.04356L12.4306 5.0419C12.6103 5.14566 12.8221 5.17929 13.0251 5.13632L14.9745 4.72298L15.7481 6.0631L14.4156 7.54457C14.2768 7.69891 14.2 7.8991 14.2 8.10663V10.1036C14.2 10.311 14.2768 10.5113 14.4156 10.6656L15.7481 12.1469L14.9745 13.487L13.0251 13.0737C12.8221 13.0307 12.6103 13.0643 12.4306 13.1681L10.7013 14.1666C10.5215 14.2704 10.3866 14.437 10.3224 14.6344L9.70566 16.5291H8.15825ZM18.8324 13.6268L19.8845 14.7964L19.3339 15.7501L17.795 15.4237C17.5919 15.3805 17.3801 15.4142 17.2004 15.5181L15.7498 16.3556C15.5701 16.4594 15.4352 16.626 15.3709 16.8233L14.8841 18.3192H13.7828L13.2961 16.8233C13.2318 16.626 13.0967 16.4594 12.917 16.3556L11.7492 15.6814L11.821 15.461L12.9919 14.785L15.2229 15.2581C15.3964 15.2949 15.5772 15.2758 15.7392 15.2036C15.9013 15.1313 16.0363 15.0097 16.1251 14.8561L17.509 12.4588C17.5978 12.3052 17.6356 12.1274 17.6171 11.951C17.5986 11.7745 17.5247 11.6084 17.4061 11.4765L15.8809 9.781V8.42886L16.0315 8.26161L17.2004 8.93642C17.3802 9.04017 17.5919 9.07379 17.795 9.0308L19.3337 8.70449L19.8845 9.65821L18.8324 10.8278C18.6936 10.9821 18.6168 11.1823 18.6168 11.3898V13.0647C18.6168 13.2723 18.6937 13.4725 18.8324 13.6268Z" fill="#333333"/>
<path d="M12.2937 9.10501C12.2937 7.25125 10.7857 5.74318 8.93189 5.74318C7.07826 5.74318 5.57005 7.25125 5.57005 9.10501C5.57005 10.9586 7.07826 12.4669 8.93189 12.4669C10.7857 12.4669 12.2937 10.9588 12.2937 9.10501ZM8.93189 10.7859C8.00508 10.7859 7.25097 10.0318 7.25097 9.10501C7.25097 8.17803 8.00508 7.42409 8.93189 7.42409C9.85888 7.42409 10.6128 8.17803 10.6128 9.10501C10.6128 10.0318 9.85888 10.7859 8.93189 10.7859ZM20.2978 12.7423V11.7122L21.5424 10.3286C21.661 10.1966 21.7349 10.0306 21.7534 9.85413C21.7719 9.67769 21.7341 9.49991 21.6454 9.34627L20.4844 7.33543C20.3957 7.18178 20.2607 7.06014 20.0986 6.98795C19.9366 6.91576 19.7558 6.89672 19.5823 6.93356L17.7616 7.3195L17.1807 6.98395L17.4061 6.73349C17.5247 6.60159 17.5986 6.43552 17.6171 6.25907C17.6357 6.08262 17.5979 5.90483 17.5092 5.75116L16.1251 3.35387C16.0363 3.20022 15.9013 3.07858 15.7392 3.00637C15.5772 2.93416 15.3964 2.91509 15.2229 2.95188L12.9919 3.42498L11.821 2.74883L11.1151 0.580357C11.0602 0.411652 10.9534 0.264642 10.8098 0.160387C10.6663 0.0561319 10.4935 -1.92557e-05 10.316 -2.28871e-05L7.54795 -2.28871e-05C7.37051 -3.20694e-05 7.19761 0.0561208 7.05403 0.160391C6.91046 0.264662 6.80357 0.4117 6.74867 0.580441L6.04298 2.74887L4.87209 3.42502L2.64093 2.95192C2.46736 2.91516 2.28661 2.93425 2.12456 3.00646C1.9625 3.07868 1.82745 3.20031 1.73873 3.35396L0.35479 5.75103C0.26607 5.90468 0.22826 6.08247 0.246777 6.25892C0.265295 6.43537 0.339189 6.60144 0.457873 6.73332L1.98301 8.42886V9.781L0.457873 11.4765C0.33923 11.6084 0.265363 11.7745 0.246846 11.9509C0.22833 12.1274 0.266115 12.3052 0.35479 12.4588L1.7389 14.8561C1.82758 15.0097 1.96263 15.1314 2.1247 15.2036C2.28676 15.2758 2.46753 15.2949 2.64109 15.2581L4.87193 14.785L6.04281 15.461L6.74867 17.6296C6.80358 17.7983 6.91047 17.9454 7.05404 18.0496C7.19762 18.1539 7.37051 18.21 7.54795 18.2101H10.316C10.4934 18.21 10.6663 18.1539 10.8098 18.0496C10.9534 17.9453 11.0602 17.7983 11.1151 17.6296L11.2174 17.3153L11.7973 17.6501L12.3734 19.4197C12.4283 19.5884 12.5351 19.7354 12.6787 19.8396C12.8222 19.9438 12.995 20 13.1724 20H15.4944C15.8583 20 16.1809 19.7657 16.2936 19.4197L16.8695 17.6501L17.7616 17.135L19.5823 17.5209C19.7558 17.5577 19.9365 17.5386 20.0986 17.4665C20.2606 17.3943 20.3957 17.2727 20.4844 17.1191L21.6453 15.1082C21.734 14.9546 21.7718 14.7768 21.7533 14.6003C21.7348 14.4239 21.6609 14.2578 21.5422 14.1259L20.2978 12.7423ZM8.15825 16.5291L7.54152 14.6343C7.47732 14.4369 7.34229 14.2702 7.16247 14.1665L5.43314 13.1681C5.25346 13.0643 5.04175 13.0307 4.83877 13.0737L2.88945 13.487L2.11564 12.1469L3.44823 10.6656C3.58703 10.5113 3.66381 10.3111 3.66376 10.1036V8.10663C3.66376 7.899 3.58695 7.69888 3.44823 7.54457L2.11564 6.0631L2.88945 4.72298L4.83877 5.13632C5.04176 5.17931 5.25347 5.14567 5.43314 5.0419L7.16251 4.04356C7.34233 3.9398 7.47736 3.77314 7.54156 3.57571L8.15821 1.6809H9.70566L10.3222 3.57571C10.3865 3.77311 10.5215 3.93975 10.7013 4.04356L12.4306 5.0419C12.6103 5.14566 12.8221 5.17929 13.0251 5.13632L14.9745 4.72298L15.7481 6.0631L14.4156 7.54457C14.2768 7.69891 14.2 7.8991 14.2 8.10663V10.1036C14.2 10.311 14.2768 10.5113 14.4156 10.6656L15.7481 12.1469L14.9745 13.487L13.0251 13.0737C12.8221 13.0307 12.6103 13.0643 12.4306 13.1681L10.7013 14.1666C10.5215 14.2704 10.3866 14.437 10.3224 14.6344L9.70566 16.5291H8.15825ZM18.8324 13.6268L19.8845 14.7964L19.3339 15.7501L17.795 15.4237C17.5919 15.3805 17.3801 15.4142 17.2004 15.5181L15.7498 16.3556C15.5701 16.4594 15.4352 16.626 15.3709 16.8233L14.8841 18.3192H13.7828L13.2961 16.8233C13.2318 16.626 13.0967 16.4594 12.917 16.3556L11.7492 15.6814L11.821 15.461L12.9919 14.785L15.2229 15.2581C15.3964 15.2949 15.5772 15.2758 15.7392 15.2036C15.9013 15.1313 16.0363 15.0097 16.1251 14.8561L17.509 12.4588C17.5978 12.3052 17.6356 12.1274 17.6171 11.951C17.5986 11.7745 17.5247 11.6084 17.4061 11.4765L15.8809 9.781V8.42886L16.0315 8.26161L17.2004 8.93642C17.3802 9.04017 17.5919 9.07379 17.795 9.0308L19.3337 8.70449L19.8845 9.65821L18.8324 10.8278C18.6936 10.9821 18.6168 11.1823 18.6168 11.3898V13.0647C18.6168 13.2723 18.6937 13.4725 18.8324 13.6268Z" fill="black" fill-opacity="0.2"/>
</svg>
