<svg xmlns="http://www.w3.org/2000/svg" width="12" height="13" viewBox="0 0 12 13"><g transform="translate(-0.34)"><path d="M4.032,4.767a.477.477,0,0,1,.326.127.42.42,0,0,1,.135.306v5.2a.42.42,0,0,1-.135.306.483.483,0,0,1-.653,0,.42.42,0,0,1-.135-.306V5.2a.42.42,0,0,1,.135-.306A.477.477,0,0,1,4.032,4.767Zm2.308,0a.477.477,0,0,1,.326.127A.42.42,0,0,1,6.8,5.2v5.2a.42.42,0,0,1-.135.306.483.483,0,0,1-.653,0,.42.42,0,0,1-.135-.306V5.2a.42.42,0,0,1,.135-.306A.477.477,0,0,1,6.34,4.767ZM9.109,5.2a.42.42,0,0,0-.135-.306.483.483,0,0,0-.653,0,.42.42,0,0,0-.135.306v5.2a.42.42,0,0,0,.135.306.483.483,0,0,0,.653,0,.42.42,0,0,0,.135-.306Z" fill="purple"/><path d="M12.34,2.6a.841.841,0,0,1-.27.613.954.954,0,0,1-.653.254h-.462v7.8a1.681,1.681,0,0,1-.541,1.226A1.909,1.909,0,0,1,9.109,13H3.571a1.909,1.909,0,0,1-1.305-.508,1.681,1.681,0,0,1-.541-1.226v-7.8H1.263A.954.954,0,0,1,.61,3.213.841.841,0,0,1,.34,2.6V1.733a.841.841,0,0,1,.27-.613A.954.954,0,0,1,1.263.867H4.494a.841.841,0,0,1,.27-.613A.954.954,0,0,1,5.417,0H7.263a.954.954,0,0,1,.653.254.841.841,0,0,1,.27.613h3.231a.954.954,0,0,1,.653.254.841.841,0,0,1,.27.613Zm-9.583.867-.109.051v7.749a.841.841,0,0,0,.27.613.955.955,0,0,0,.653.254H9.109a.955.955,0,0,0,.653-.254.841.841,0,0,0,.27-.613V3.518l-.109-.051ZM1.263,2.6H11.417V1.733H1.263Z" fill="purple"/></g></svg>