<svg width="135" height="27" viewBox="0 0 135 27" fill="none" xmlns="http://www.w3.org/2000/svg">
<path d="M10.5074 16.5249V11.1233H21.0863V25.7798C18.7751 26.2599 16.2496 26.5 13.5095 26.5H9.39949C6.01615 26.5 3.59778 25.8158 2.14437 24.4474C0.71479 23.0549 0 20.7862 0 17.6413V9.35872C0 6.21376 0.71479 3.95706 2.14437 2.58864C3.59778 1.19621 6.01615 0.5 9.39949 0.5H11.8655C14.8438 0.5 17.3694 0.716067 19.4423 1.1482V6.62188H10.293C8.48217 6.62188 7.57677 7.58218 7.57677 9.50277V17.4972C7.57677 19.4178 8.48217 20.3781 10.293 20.3781H13.8669V16.5249H10.5074Z" fill="white"/>
<path d="M42.3599 26.1399L41.252 22.3587H33.7467L32.6388 26.1399H24.7761L33.3179 0.86011H41.6809L50.2226 26.1399H42.3599ZM37.4994 9.46676L35.4265 16.597H39.5723L37.4994 9.46676Z" fill="white"/>
<path d="M61.6288 10.4751H65.0598C66.1082 10.4751 66.6324 10.0189 66.6324 9.10665V8.13435C66.6324 7.22207 66.1082 6.76593 65.0598 6.76593H61.6288V10.4751ZM74.0662 7.55817V8.78255C74.0662 9.81487 73.8279 10.7151 73.3514 11.4834C72.8749 12.2516 72.2315 12.8038 71.4214 13.1399C72.3269 13.38 73.0416 13.9201 73.5658 14.7604C74.09 15.6006 74.3521 16.633 74.3521 17.8573V19.1537C74.3521 23.8112 71.7193 26.1399 66.4537 26.1399H54.0521V0.86011H66.5251C68.9554 0.86011 70.8139 1.43629 72.1005 2.58864C73.4109 3.71699 74.0662 5.3735 74.0662 7.55817ZM61.6288 20.2341H65.0241C65.5721 20.2341 66.001 20.09 66.3107 19.8019C66.6204 19.5139 66.7753 19.1057 66.7753 18.5776V17.7493C66.7753 17.2211 66.6204 16.813 66.3107 16.5249C66.001 16.2368 65.5721 16.0928 65.0241 16.0928H61.6288V20.2341Z" fill="white"/>
<path d="M87.7108 26.1399H80.1341V0.86011H87.7108V26.1399Z" fill="white"/>
<path d="M107.502 0.86011H115.078V26.1399H107.716L101.676 13.9681V26.1399H94.0635V0.86011H101.426L107.502 13.0319V0.86011Z" fill="white"/>
<path d="M129.014 26.1399H121.437V0.86011H129.014V26.1399Z" fill="white"/>
<path d="M132.437 3.47316V1.42911H133.042C133.231 1.42911 133.383 1.44976 133.496 1.49105C133.613 1.53235 133.696 1.59746 133.747 1.6864C133.8 1.77217 133.827 1.88334 133.827 2.01993C133.827 2.14381 133.793 2.25022 133.723 2.33916C133.654 2.4281 133.55 2.49957 133.411 2.55357L133.979 3.47316H133.6L133.113 2.63934H132.763V3.47316H132.437ZM132.763 2.38681H133.042C133.19 2.38681 133.301 2.35663 133.373 2.29628C133.449 2.23593 133.487 2.14699 133.487 2.02946C133.487 1.89605 133.446 1.80711 133.364 1.76264C133.285 1.71499 133.172 1.69117 133.023 1.69117H132.763V2.38681ZM133.052 4.42609C132.784 4.42609 132.532 4.37527 132.295 4.27362C132.059 4.17198 131.851 4.03221 131.671 3.85433C131.494 3.67327 131.356 3.46363 131.255 3.22539C131.154 2.98716 131.104 2.73304 131.104 2.46305C131.104 2.18987 131.154 1.93576 131.255 1.7007C131.356 1.46246 131.494 1.25441 131.671 1.07653C131.851 0.895469 132.059 0.754117 132.295 0.652471C132.532 0.550824 132.784 0.5 133.052 0.5C133.323 0.5 133.575 0.550824 133.808 0.652471C134.045 0.754117 134.251 0.895469 134.428 1.07653C134.608 1.25441 134.748 1.46246 134.849 1.7007C134.95 1.93576 135 2.18987 135 2.46305C135 2.73304 134.95 2.98716 134.849 3.22539C134.748 3.46363 134.608 3.67327 134.428 3.85433C134.251 4.03221 134.045 4.17198 133.808 4.27362C133.575 4.37527 133.323 4.42609 133.052 4.42609ZM133.052 4.15927C133.285 4.15927 133.503 4.11639 133.704 4.03062C133.909 3.94168 134.089 3.81939 134.243 3.66374C134.398 3.5081 134.518 3.32863 134.603 3.12534C134.691 2.91887 134.735 2.6981 134.735 2.46305C134.735 2.22799 134.691 2.00881 134.603 1.80552C134.518 1.59905 134.398 1.41799 134.243 1.26235C134.089 1.1067 133.909 0.985996 133.704 0.900232C133.503 0.811292 133.285 0.766822 133.052 0.766822C132.818 0.766822 132.599 0.811292 132.394 0.900232C132.193 0.985996 132.015 1.1067 131.86 1.26235C131.706 1.41799 131.584 1.59905 131.496 1.80552C131.411 2.00881 131.368 2.22799 131.368 2.46305C131.368 2.6981 131.411 2.91887 131.496 3.12534C131.584 3.32863 131.706 3.5081 131.86 3.66374C132.015 3.81939 132.193 3.94168 132.394 4.03062C132.599 4.11639 132.818 4.15927 133.052 4.15927Z" fill="white"/>
</svg>
