<svg width="24" height="18" viewBox="0 0 24 18" fill="none" xmlns="http://www.w3.org/2000/svg">
<path d="M0.808838 3.33486V14.6651C0.808838 16.2264 2.08247 17.5 3.64369 17.5H12.8011C14.3623 17.5 15.6359 16.2264 15.6359 14.6651V12.83C15.6359 12.5196 15.3848 12.2685 15.0744 12.2685C14.764 12.2685 14.5129 12.5196 14.5129 12.83V14.6651C14.5129 15.6101 13.7414 16.3816 12.7965 16.3816H3.64369C2.69874 16.3816 1.92726 15.6101 1.92726 14.6651V3.33486C1.92726 2.3899 2.69874 1.61842 3.64369 1.61842H12.8011C13.746 1.61842 14.5175 2.3899 14.5175 3.33486V5.16998C14.5175 5.4804 14.7686 5.73147 15.079 5.73147C15.3894 5.73147 15.6405 5.4804 15.6405 5.16998V3.33486C15.6405 1.77363 14.3668 0.5 12.8056 0.5H3.64369C2.08247 0.5 0.808838 1.76907 0.808838 3.33486Z" fill="#333333"/>
<path d="M0.808838 3.33486V14.6651C0.808838 16.2264 2.08247 17.5 3.64369 17.5H12.8011C14.3623 17.5 15.6359 16.2264 15.6359 14.6651V12.83C15.6359 12.5196 15.3848 12.2685 15.0744 12.2685C14.764 12.2685 14.5129 12.5196 14.5129 12.83V14.6651C14.5129 15.6101 13.7414 16.3816 12.7965 16.3816H3.64369C2.69874 16.3816 1.92726 15.6101 1.92726 14.6651V3.33486C1.92726 2.3899 2.69874 1.61842 3.64369 1.61842H12.8011C13.746 1.61842 14.5175 2.3899 14.5175 3.33486V5.16998C14.5175 5.4804 14.7686 5.73147 15.079 5.73147C15.3894 5.73147 15.6405 5.4804 15.6405 5.16998V3.33486C15.6405 1.77363 14.3668 0.5 12.8056 0.5H3.64369C2.08247 0.5 0.808838 1.76907 0.808838 3.33486Z" fill="black" fill-opacity="0.2"/>
<path d="M18.4024 13.2226C18.512 13.3321 18.6535 13.3869 18.7996 13.3869C18.9457 13.3869 19.0872 13.3321 19.1968 13.2226L23.0268 9.39256C23.2459 9.17344 23.2459 8.82193 23.0268 8.60281L19.1968 4.77279C18.9776 4.55367 18.6261 4.55367 18.407 4.77279C18.1879 4.99191 18.1879 5.34342 18.407 5.56254L21.283 8.43848H10.7881C10.4776 8.43848 10.2266 8.68955 10.2266 8.99997C10.2266 9.31039 10.4776 9.56146 10.7881 9.56146H21.2784L18.4024 12.4374C18.1833 12.652 18.1833 13.008 18.4024 13.2226Z" fill="#333333"/>
<path d="M18.4024 13.2226C18.512 13.3321 18.6535 13.3869 18.7996 13.3869C18.9457 13.3869 19.0872 13.3321 19.1968 13.2226L23.0268 9.39256C23.2459 9.17344 23.2459 8.82193 23.0268 8.60281L19.1968 4.77279C18.9776 4.55367 18.6261 4.55367 18.407 4.77279C18.1879 4.99191 18.1879 5.34342 18.407 5.56254L21.283 8.43848H10.7881C10.4776 8.43848 10.2266 8.68955 10.2266 8.99997C10.2266 9.31039 10.4776 9.56146 10.7881 9.56146H21.2784L18.4024 12.4374C18.1833 12.652 18.1833 13.008 18.4024 13.2226Z" fill="black" fill-opacity="0.2"/>
</svg>
