<svg xmlns="http://www.w3.org/2000/svg" width="50" height="50" viewBox="0 0 50 50"><path d="M26.831,4.933a35.284,35.284,0,0,0-5.157-.194,84.612,84.612,0,0,0-10.031.325c-2.354.315-3.707.906-4.69,1.889S5.378,9.285,5.064,11.624A83.678,83.678,0,0,0,4.738,21.6V26.11c0,.2,0,.325,0,.42,0,.063,0,.091,0,.1a.582.582,0,0,0,.839.448l.083-.052c.08-.051.186-.122.35-.231a7.138,7.138,0,0,1,7.917,0,5.447,5.447,0,0,0,6.041,0,7.138,7.138,0,0,1,7.916,0,5.447,5.447,0,0,0,6.042,0,7.138,7.138,0,0,1,7.916,0,5.447,5.447,0,0,0,5.911.084,13.779,13.779,0,0,0-.387-3.533H40.079a53.168,53.168,0,0,1-6.487-.229,7.491,7.491,0,0,1-4.547-1.985,7.49,7.49,0,0,1-1.985-4.546,53.166,53.166,0,0,1-.229-6.487Zm3.488,1.8V9.971a51.828,51.828,0,0,0,.2,6.147,4.091,4.091,0,0,0,.995,2.545,4.091,4.091,0,0,0,2.545.995,51.859,51.859,0,0,0,6.147.2h4.711c-.69-.669-1.573-1.47-2.72-2.5l-9.21-8.286C31.85,8.046,31.007,7.294,30.32,6.73ZM22.013,1.25c3.221,0,5.3,0,7.217.733S32.685,4.1,35.068,6.249l.25.225,9.21,8.286.29.261c2.754,2.476,4.534,4.077,5.492,6.227a14.24,14.24,0,0,1,.94,5.732,3.2,3.2,0,0,1-1.426,2.716,8.936,8.936,0,0,1-9.911,0,3.649,3.649,0,0,0-4.047,0,8.936,8.936,0,0,1-9.91,0,3.649,3.649,0,0,0-4.047,0,8.936,8.936,0,0,1-9.911,0,3.649,3.649,0,0,0-4.047,0l-.071.047a7.865,7.865,0,0,1-.689.429,4.071,4.071,0,0,1-5.915-3.165A7.9,7.9,0,0,1,1.25,26.2c0-.028,0-.057,0-.085V21.468a84.919,84.919,0,0,1,.356-10.308,10.953,10.953,0,0,1,2.88-6.674A10.98,10.98,0,0,1,11.18,1.606,85.846,85.846,0,0,1,21.543,1.25h.47ZM12,39A3.649,3.649,0,0,0,7.95,39l-1.456.97a13.829,13.829,0,0,0-1.19.84,1.154,1.154,0,0,0-.163.162.143.143,0,0,0-.024.041v0a.4.4,0,0,0-.016.223,9.776,9.776,0,0,0,.239,1.154,6.253,6.253,0,0,0,1.615,3.156c.985.984,2.333,1.574,4.674,1.889a83.743,83.743,0,0,0,9.978.325H30.91a83.744,83.744,0,0,0,9.978-.325c2.341-.315,3.689-.9,4.674-1.889,1.1-1.1,1.7-2.64,1.98-5.46A8.937,8.937,0,0,1,39.913,39a3.649,3.649,0,0,0-4.047,0,8.936,8.936,0,0,1-9.91,0,3.649,3.649,0,0,0-4.047,0A8.936,8.936,0,0,1,12,39Zm-5.982-2.9a7.138,7.138,0,0,1,7.917,0,5.447,5.447,0,0,0,6.041,0,7.138,7.138,0,0,1,7.916,0,5.447,5.447,0,0,0,6.042,0,7.138,7.138,0,0,1,7.916,0,5.447,5.447,0,0,0,6.041,0,2.119,2.119,0,0,1,3.294,1.851c-.182,4.378-.76,7.676-3.154,10.07a10.96,10.96,0,0,1-6.676,2.879,84.989,84.989,0,0,1-10.312.356H21.474a84.989,84.989,0,0,1-10.312-.356,10.96,10.96,0,0,1-6.676-2.879A9.711,9.711,0,0,1,1.945,43.2L1.9,43a5.135,5.135,0,0,1-.027-3.266A3.944,3.944,0,0,1,3.033,38.16a15.594,15.594,0,0,1,1.46-1.051Z" transform="translate(-1.25 -1.25)" fill="purple" fill-rule="evenodd"/></svg>