<svg width="210" height="42" viewBox="0 0 210 42" fill="none" xmlns="http://www.w3.org/2000/svg">
<path d="M19.0026 8.24684C19.6312 6.31209 22.3684 6.31209 22.997 8.24684L25.2431 15.1596C25.5242 16.0249 26.3306 16.6107 27.2403 16.6107H34.5088C36.5432 16.6107 37.389 19.2139 35.7432 20.4096L29.8628 24.6819C29.1268 25.2167 28.8188 26.1646 29.1 27.0298L31.3461 33.9426C31.9747 35.8773 29.7603 37.4862 28.1145 36.2905L22.2341 32.0181C21.4981 31.4834 20.5015 31.4834 19.7654 32.0181L13.8851 36.2905C12.2393 37.4862 10.0249 35.8773 10.6535 33.9426L12.8996 27.0298C13.1808 26.1646 12.8728 25.2167 12.1367 24.6819L6.25639 20.4096C4.6106 19.2139 5.45643 16.6107 7.49074 16.6107H14.7593C15.669 16.6107 16.4753 16.0249 16.7565 15.1596L19.0026 8.24684Z" fill="#FF8A00"/>
<path d="M61.0026 8.24684C61.6312 6.31209 64.3684 6.31209 64.997 8.24684L67.2431 15.1596C67.5242 16.0249 68.3306 16.6107 69.2403 16.6107H76.5088C78.5432 16.6107 79.389 19.2139 77.7432 20.4096L71.8628 24.6819C71.1268 25.2167 70.8188 26.1646 71.1 27.0298L73.3461 33.9426C73.9747 35.8773 71.7603 37.4862 70.1145 36.2905L64.2341 32.0181C63.4981 31.4834 62.5015 31.4834 61.7654 32.0181L55.8851 36.2905C54.2393 37.4862 52.0249 35.8773 52.6535 33.9426L54.8996 27.0298C55.1808 26.1646 54.8728 25.2167 54.1367 24.6819L48.2564 20.4096C46.6106 19.2139 47.4564 16.6107 49.4907 16.6107H56.7593C57.669 16.6107 58.4753 16.0249 58.7565 15.1596L61.0026 8.24684Z" fill="#FF8A00"/>
<path d="M103.003 8.24684C103.631 6.31209 106.368 6.31209 106.997 8.24684L109.243 15.1596C109.524 16.0249 110.331 16.6107 111.24 16.6107H118.509C120.543 16.6107 121.389 19.2139 119.743 20.4096L113.863 24.6819C113.127 25.2167 112.819 26.1646 113.1 27.0298L115.346 33.9426C115.975 35.8773 113.76 37.4862 112.114 36.2905L106.234 32.0181C105.498 31.4834 104.501 31.4834 103.765 32.0181L97.8851 36.2905C96.2393 37.4862 94.0249 35.8773 94.6535 33.9426L96.8996 27.0298C97.1808 26.1646 96.8728 25.2167 96.1367 24.6819L90.2564 20.4096C88.6106 19.2139 89.4564 16.6107 91.4907 16.6107H98.7593C99.669 16.6107 100.475 16.0249 100.756 15.1596L103.003 8.24684Z" fill="#FF8A00"/>
<path d="M145.003 8.24684C145.631 6.31209 148.368 6.31209 148.997 8.24684L151.243 15.1596C151.524 16.0249 152.331 16.6107 153.24 16.6107H160.509C162.543 16.6107 163.389 19.2139 161.743 20.4096L155.863 24.6819C155.127 25.2167 154.819 26.1646 155.1 27.0298L157.346 33.9426C157.975 35.8773 155.76 37.4862 154.114 36.2905L148.234 32.0181C147.498 31.4834 146.501 31.4834 145.765 32.0181L139.885 36.2905C138.239 37.4862 136.025 35.8773 136.654 33.9426L138.9 27.0298C139.181 26.1646 138.873 25.2167 138.137 24.6819L132.256 20.4096C130.611 19.2139 131.456 16.6107 133.491 16.6107H140.759C141.669 16.6107 142.475 16.0249 142.756 15.1596L145.003 8.24684Z" fill="#FF8A00"/>
<path d="M187.003 8.24684C187.631 6.31209 190.368 6.31209 190.997 8.24684L193.243 15.1596C193.524 16.0249 194.331 16.6107 195.24 16.6107H202.509C204.543 16.6107 205.389 19.2139 203.743 20.4096L197.863 24.6819C197.127 25.2167 196.819 26.1646 197.1 27.0298L199.346 33.9426C199.975 35.8773 197.76 37.4862 196.114 36.2905L190.234 32.0181C189.498 31.4834 188.501 31.4834 187.765 32.0181L181.885 36.2905C180.239 37.4862 178.025 35.8773 178.654 33.9426L180.9 27.0298C181.181 26.1646 180.873 25.2167 180.137 24.6819L174.256 20.4096C172.611 19.2139 173.456 16.6107 175.491 16.6107H182.759C183.669 16.6107 184.475 16.0249 184.756 15.1596L187.003 8.24684Z" fill="#FF8A00"/>
</svg>
